<svg width="11" height="23" viewBox="0 0 11 23" fill="none" xmlns="http://www.w3.org/2000/svg">
<path d="M10.5 11.25C10.5 11.8984 10.3867 12.5156 10.1602 13.1016C9.93359 13.6875 9.62109 14.2148 9.22266 14.6836C8.82422 15.1523 8.35156 15.5391 7.80469 15.8438C7.25781 16.1484 6.65625 16.3477 6 16.4414V22.5H4.5V16.4414C3.85156 16.3555 3.25391 16.1602 2.70703 15.8555C2.16016 15.5508 1.68359 15.1641 1.27734 14.6953C0.871094 14.2266 0.558594 13.6992 0.339844 13.1133C0.121094 12.5273 0.0078125 11.9062 0 11.25C0 10.6016 0.113281 9.98438 0.339844 9.39844C0.566406 8.8125 0.878906 8.28516 1.27734 7.81641C1.67578 7.34766 2.14844 6.96094 2.69531 6.65625C3.24219 6.35156 3.84375 6.15234 4.5 6.05859V0H6V6.05859C6.64844 6.14453 7.24609 6.33984 7.79297 6.64453C8.33984 6.94922 8.81641 7.33594 9.22266 7.80469C9.62891 8.27344 9.94141 8.80078 10.1602 9.38672C10.3789 9.97266 10.4922 10.5938 10.5 11.25ZM5.25 15C5.76562 15 6.25 14.9023 6.70312 14.707C7.15625 14.5117 7.55078 14.2461 7.88672 13.9102C8.22266 13.5742 8.49219 13.1758 8.69531 12.7148C8.89844 12.2539 9 11.7656 9 11.25C9 10.7344 8.90234 10.25 8.70703 9.79688C8.51172 9.34375 8.24219 8.94922 7.89844 8.61328C7.55469 8.27734 7.15625 8.00781 6.70312 7.80469C6.25 7.60156 5.76562 7.5 5.25 7.5C4.73438 7.5 4.25 7.59766 3.79688 7.79297C3.34375 7.98828 2.94531 8.25781 2.60156 8.60156C2.25781 8.94531 1.98828 9.34375 1.79297 9.79688C1.59766 10.25 1.5 10.7344 1.5 11.25C1.5 11.7656 1.59766 12.25 1.79297 12.7031C1.98828 13.1562 2.25391 13.5547 2.58984 13.8984C2.92578 14.2422 3.32422 14.5117 3.78516 14.707C4.24609 14.9023 4.73438 15 5.25 15Z" fill="white"/>
</svg>
